<?xml version="1.0" standalone="no"?>
<!DOCTYPE svg PUBLIC "-//W3C//DTD SVG 20010904//EN"
 "http://www.w3.org/TR/2001/REC-SVG-20010904/DTD/svg10.dtd">
<svg version="1.0" xmlns="http://www.w3.org/2000/svg"
 width="196.000000pt" height="184.000000pt" viewBox="0 0 196.000000 184.000000"
 preserveAspectRatio="xMidYMid meet">

<g transform="translate(0.000000,184.000000) scale(0.100000,-0.100000)"
fill="#000000" stroke="none">
<path d="M882 1659 c-27 -57 -86 -187 -132 -287 -50 -110 -92 -189 -104 -197
-12 -7 -138 -66 -281 -130 -143 -65 -266 -123 -274 -131 -16 -14 -21 -12 371
-189 l197 -89 107 -235 c152 -335 155 -341 170 -341 8 0 14 4 14 9 0 5 15 42
34 83 19 40 75 163 124 273 l90 200 53 28 c30 15 159 76 288 135 129 59 236
112 237 117 2 6 -125 69 -282 140 l-286 130 -130 285 c-71 157 -133 289 -138
294 -6 6 -29 -32 -58 -95z m138 -285 c44 -75 79 -139 76 -141 -2 -2 -39 12
-82 31 -85 40 -84 40 -182 -7 -34 -16 -64 -28 -66 -26 -6 6 158 279 166 279 4
0 44 -61 88 -136z m29 -172 l112 -68 68 -114 69 -114 -27 -46 c-111 -190 -92
-169 -221 -246 l-119 -72 -103 60 c-57 33 -108 64 -115 70 -7 5 -42 61 -78
123 l-66 114 67 113 68 113 110 67 c61 36 114 67 117 67 4 1 57 -30 118 -67z
m-474 -216 c-39 -82 -39 -88 0 -166 47 -94 45 -95 -47 -41 -184 107 -210 123
-201 131 4 5 60 38 122 75 63 37 124 73 135 81 32 22 30 4 -9 -80z m812 13
c65 -40 124 -77 131 -83 9 -9 -18 -30 -123 -94 -74 -45 -135 -78 -135 -73 0 5
15 42 34 83 l34 75 -34 78 c-35 82 -37 85 -30 85 2 0 58 -32 123 -71z m-504
-466 l48 -24 80 37 c44 19 83 34 85 31 3 -3 -18 -45 -47 -93 -82 -141 -110
-184 -119 -179 -6 4 -133 212 -159 262 -11 22 -11 22 26 6 21 -8 60 -26 86
-40z"/>
<path d="M894 1076 c-55 -24 -64 -48 -64 -166 0 -64 5 -115 13 -130 17 -35 73
-60 135 -60 l52 0 0 50 0 50 -34 0 c-43 0 -66 9 -66 25 0 16 22 25 61 25 26 0
29 3 29 34 0 33 -2 35 -37 38 -27 2 -39 8 -41 21 -3 14 4 17 42 17 l46 0 0 55
0 55 -52 0 c-29 -1 -67 -7 -84 -14z"/>
</g>
</svg>
